<svg width="200" height="200" viewBox="0 0 200 200" fill="none" xmlns="http://www.w3.org/2000/svg">
<path d="M81.0893 196.133H143.761C150.992 183.278 158.481 172.029 159.831 155.156C160.728 143.943 159.831 127.289 159.831 115.785C159.831 104.281 158.224 96.5014 148.582 96.5014C138.94 96.5014 138.885 103.733 138.94 113.375C138.94 99.7154 138.94 91.6805 129.298 91.6805C115.639 91.6805 117.246 112.96 117.246 111.768C117.246 110.964 117.246 76.3953 117.246 54.4334C117.246 47.202 113.229 43.1846 106.801 43.1846C101.176 43.1846 96.3556 48.809 96.3556 53.6299C96.3556 64.5573 96.3556 101.055 96.3556 110.964L96.3556 62.4682C96.3556 59.2543 93.1416 51.2194 85.9103 51.2194C79.4824 51.2194 75.465 55.2369 75.465 62.4682C75.465 72.7528 75.465 123.016 75.465 142.3C69.3049 133.194 50.0749 116.589 44.9326 119.802C36.8977 124.824 40.4319 128.639 43.3256 133.462C45.7361 137.479 70.644 175.243 81.0893 196.133Z" stroke="white" stroke-width="5" stroke-linejoin="round"/>
<path d="M177.768 22.7678C178.744 21.7915 178.744 20.2085 177.768 19.2322L161.858 3.32233C160.882 2.34602 159.299 2.34602 158.322 3.32233C157.346 4.29864 157.346 5.88155 158.322 6.85786L172.464 21L158.322 35.1421C157.346 36.1184 157.346 37.7014 158.322 38.6777C159.299 39.654 160.882 39.654 161.858 38.6777L177.768 22.7678ZM23.2322 19.2322C22.2559 20.2085 22.2559 21.7915 23.2322 22.7678L39.1421 38.6777C40.1184 39.654 41.7014 39.654 42.6777 38.6777C43.654 37.7014 43.654 36.1184 42.6777 35.1421L28.5355 21L42.6777 6.85786C43.654 5.88155 43.654 4.29864 42.6777 3.32233C41.7014 2.34602 40.1184 2.34602 39.1421 3.32233L23.2322 19.2322ZM176 18.5L25 18.5V23.5L176 23.5V18.5Z" fill="white"/>
</svg>
