<svg width="200" height="200" viewBox="0 0 200 200" fill="none" xmlns="http://www.w3.org/2000/svg">
<g clip-path="url(#clip0_1_19)">
<path d="M31.0691 149.864L77.7094 196.504C92.6582 192.318 106.603 189.52 120.164 177.967C129.176 170.29 140.902 157.229 149.464 148.668C158.025 140.106 162.619 133.121 155.443 125.945C148.268 118.77 142.845 124.11 135.711 131.327C145.876 121.162 151.856 115.182 144.68 108.007C134.248 97.5746 119.875 114.874 120.762 113.986C121.36 113.388 114.788 119.96 131.132 103.616C136.514 98.2346 136.514 92.255 131.73 87.4714C127.545 83.2857 119.771 83.8837 116.184 87.4714C108.051 95.6036 113.188 90.4669 105.813 97.8417L142.342 61.3132C147.291 56.3635 148.321 50.5501 142.94 45.1685C138.156 40.3849 132.176 40.3849 126.795 45.7664C119.141 53.4202 74.462 95.8792 60.1111 110.23C58.3409 84.0557 58.7035 70.8381 48.9868 68.5958C39.2701 66.3534 41.0698 84.1701 39.6341 89.9128C38.4382 94.6964 38.8424 126.543 31.0691 149.864Z" stroke="white" stroke-width="5" stroke-linejoin="round"/>
<path d="M36.806 45.8016C36.1441 47.0133 36.5898 48.5322 37.8016 49.194L57.5479 59.9798C58.7596 60.6417 60.2785 60.1959 60.9403 58.9842C61.6022 57.7725 61.1565 56.2536 59.9447 55.5918L42.3925 46.0044L51.9798 28.4521C52.6417 27.2404 52.1959 25.7215 50.9842 25.0597C49.7725 24.3978 48.2536 24.8435 47.5918 26.0553L36.806 45.8016ZM133.194 21.1984C133.856 19.9867 133.41 18.4678 132.198 17.806L112.452 7.02017C111.24 6.3583 109.722 6.80405 109.06 8.01578C108.398 9.22751 108.844 10.7464 110.055 11.4082L127.608 20.9956L118.02 38.5479C117.358 39.7596 117.804 41.2785 119.016 41.9403C120.228 42.6022 121.746 42.1565 122.408 40.9447L133.194 21.1984ZM39.704 49.3988L131.704 22.3988L130.296 17.6012L38.296 44.6012L39.704 49.3988Z" fill="white"/>
</g>
<defs>
<clipPath id="clip0_1_19">
<rect width="200" height="200" fill="white"/>
</clipPath>
</defs>
</svg>
