<svg width="200" height="200" viewBox="0 0 200 200" fill="none" xmlns="http://www.w3.org/2000/svg">
<path d="M79.0154 193.796H144.975C152.586 180.266 160.467 168.427 161.887 150.669C162.832 138.868 161.887 121.34 161.887 109.233C161.887 97.1252 160.196 88.9376 150.049 88.9376C139.901 88.9376 139.843 96.5483 139.901 106.696C139.901 92.3202 139.901 83.8638 129.753 83.8638C115 83.8638 117.069 106.259 117.069 105.005C117.069 104.159 117.069 113.453 117.069 90.3389C117.069 82.7282 112.841 78.5 106.076 78.5C100.156 78.5 95.0825 84.4194 95.0825 89.4932C95.0825 100.994 95.0825 93.7295 95.0825 104.159V52.5C95.0825 45.5 91.6999 40.6611 84.0892 40.6611C77.3242 40.6611 73.096 44.8893 73.096 52.5C73.096 63.3241 73.096 116.844 73.096 137.139C66.6128 127.555 46.374 110.078 40.9619 113.461C32.5056 118.746 36.2251 122.761 39.2706 127.837C41.8075 132.065 68.0221 171.81 79.0154 193.796Z" stroke="white" stroke-width="5" stroke-linejoin="round"/>
<path d="M37.5571 51.2759C37.8504 52.6251 39.1819 53.481 40.5311 53.1877L62.5175 48.4081C63.8667 48.1148 64.7227 46.7832 64.4294 45.4341C64.1361 44.0849 62.8046 43.2289 61.4554 43.5222L41.9119 47.7708L37.6633 28.2272C37.37 26.878 36.0385 26.0221 34.6893 26.3154C33.3401 26.6087 32.4841 27.9402 32.7774 29.2894L37.5571 51.2759ZM170.352 51.3989C170.713 52.7315 172.086 53.5189 173.419 53.1577C174.751 52.7965 175.539 51.4233 175.177 50.0907L170.352 51.3989ZM42.1029 52.0967C46.1424 45.813 51.2112 34.5458 61.5526 24.6106C71.7216 14.8411 86.9444 6.51355 110.983 6.9995L111.084 2.00052C85.6552 1.48647 69.1668 10.3619 58.0886 21.005C47.1827 31.4825 41.4683 43.8377 37.8971 49.3929L42.1029 52.0967ZM110.983 6.9995C134.838 7.48174 149.622 18.5868 158.505 29.5695C162.965 35.084 165.94 40.5762 167.797 44.6887C168.724 46.7423 169.37 48.444 169.78 49.6217C169.985 50.2103 170.132 50.6672 170.225 50.9708C170.272 51.1225 170.305 51.2359 170.326 51.3082C170.336 51.3443 170.344 51.3702 170.348 51.3854C170.35 51.393 170.351 51.398 170.352 51.4002C170.352 51.4014 170.352 51.4018 170.352 51.4016C170.352 51.4015 170.352 51.4008 170.352 51.4007C170.352 51.3999 170.352 51.3989 172.764 50.7448C175.177 50.0907 175.177 50.0894 175.177 50.0878C175.176 50.0871 175.176 50.0854 175.176 50.0839C175.175 50.0809 175.174 50.0772 175.173 50.0729C175.17 50.0642 175.167 50.0527 175.163 50.0386C175.155 50.0103 175.144 49.9713 175.13 49.9218C175.101 49.8228 175.06 49.682 175.004 49.5021C174.894 49.1424 174.728 48.6263 174.502 47.9758C174.048 46.6752 173.349 44.8344 172.354 42.6307C170.365 38.2285 167.182 32.347 162.393 26.4253C152.777 14.5356 136.695 2.51827 111.084 2.00052L110.983 6.9995Z" fill="white"/>
</svg>
